<?xml version="1.0" encoding="UTF-8" standalone="no"?>
<!-- Created with Inkscape (http://www.inkscape.org/) -->

<svg
   xmlns:dc="http://purl.org/dc/elements/1.1/"
   xmlns:cc="http://creativecommons.org/ns#"
   xmlns:rdf="http://www.w3.org/1999/02/22-rdf-syntax-ns#"
   xmlns:svg="http://www.w3.org/2000/svg"
   xmlns="http://www.w3.org/2000/svg"
   xmlns:sodipodi="http://sodipodi.sourceforge.net/DTD/sodipodi-0.dtd"
   xmlns:inkscape="http://www.inkscape.org/namespaces/inkscape"
   width="500"
   height="170"
   viewBox="0 0 132.29166 44.979168"
   version="1.1"
   id="svg828"
   inkscape:version="0.92.3 (2405546, 2018-03-11)"
   sodipodi:docname="home.svg">
  <defs
     id="defs822" />
  <sodipodi:namedview
     id="base"
     pagecolor="#ffffff"
     bordercolor="#666666"
     borderopacity="1.0"
     inkscape:pageopacity="0.0"
     inkscape:pageshadow="2"
     inkscape:zoom="0.35"
     inkscape:cx="1627.1429"
     inkscape:cy="560"
     inkscape:document-units="px"
     inkscape:current-layer="layer1"
     showgrid="false"
     units="px"
     inkscape:window-width="1920"
     inkscape:window-height="1017"
     inkscape:window-x="-8"
     inkscape:window-y="-8"
     inkscape:window-maximized="1" />
  <metadata
     id="metadata825">
    <rdf:RDF>
      <cc:Work
         rdf:about="">
        <dc:format>image/svg+xml</dc:format>
        <dc:type
           rdf:resource="http://purl.org/dc/dcmitype/StillImage" />
        <dc:title></dc:title>
      </cc:Work>
    </rdf:RDF>
  </metadata>
  <g
     inkscape:label="Layer 1"
     inkscape:groupmode="layer"
     id="layer1"
     transform="translate(0,-252.02082)">
    <g
       id="g1470"
       transform="matrix(0.24350723,0,0,0.24350723,-31.159199,243.64834)"
       style="stroke-width:4.10665464">
      <path
         inkscape:connector-curvature="0"
         id="path1387"
         d="m 296.75365,192.24348 c -2.75197,-36.24212 46.51705,-82.79006 77.56878,-51.85987 23.13922,28.13161 62.37735,30.34422 90.63767,8.48977 45.94708,-19.13873 -26.43961,23.46549 -43.67521,24.54775 -40.61558,21.67067 -63.66911,-57.58708 -101.53868,-24.69323 -11.16368,12.92801 -5.37549,35.75334 -22.99256,43.51558 z"
         style="fill:#000000;fill-opacity:1;stroke:none;stroke-width:5.43276119;stroke-linecap:round;stroke-linejoin:round;stroke-miterlimit:4;stroke-dasharray:none;stroke-dashoffset:0;stroke-opacity:1;paint-order:markers fill stroke" />
      <path
         inkscape:connector-curvature="0"
         id="path1389"
         d="m 405.81664,125.52929 c 26.89195,23.70776 55.01763,-10.30781 78.83817,-21.45775 47.17039,-21.296756 99.92335,-11.707044 149.87222,-13.384666 -32.91973,27.024516 -77.45009,4.99257 -115.53484,11.446946 -41.94241,-0.93957 -67.69478,39.80259 -108.19625,41.32418 -17.87375,3.26419 -21.06316,-8.97406 -4.9793,-17.92871 z"
         style="fill:#000000;fill-opacity:1;stroke:none;stroke-width:5.43276119;stroke-linecap:round;stroke-linejoin:round;stroke-miterlimit:4;stroke-dasharray:none;stroke-dashoffset:0;stroke-opacity:1;paint-order:markers fill stroke" />
      <path
         inkscape:connector-curvature="0"
         id="path1393"
         d="m 386.92473,105.1128 c 31.80946,-8.65344 66.60554,-4.6791 89.98191,-32.448779 52.51653,-24.289155 112.96794,-13.457843 166.71375,0.452478 -11.42883,24.310889 -58.64693,0.839394 -84.13743,0.118621 -42.51836,-5.809421 -93.16311,-2.701625 -123.49118,31.25966 -8.78178,7.01121 -70.43741,13.7611 -49.06705,0.61802 z"
         style="fill:#000000;fill-opacity:1;stroke:none;stroke-width:5.43276119;stroke-linecap:round;stroke-linejoin:round;stroke-miterlimit:4;stroke-dasharray:none;stroke-dashoffset:0;stroke-opacity:1;paint-order:markers fill stroke" />
      <path
         inkscape:connector-curvature="0"
         id="path1395"
         d="m 509.69372,152.43894 c 36.33229,-34.50936 90.96034,-19.01819 135.19062,-32.03364 -12.16874,23.54919 -71.84365,15.85979 -103.08641,22.7046 -10.78598,2.23772 -23.26275,1.81312 -32.10421,9.32904 z"
         style="fill:#000000;fill-opacity:1;stroke:none;stroke-width:5.43276119;stroke-linecap:round;stroke-linejoin:round;stroke-miterlimit:4;stroke-dasharray:none;stroke-dashoffset:0;stroke-opacity:1;paint-order:markers fill stroke" />
      <path
         inkscape:connector-curvature="0"
         id="path1397"
         d="m 345.99393,113.91566 c -38.36586,-25.904425 -78.90631,5.65623 -116.14394,14.88631 -17.75935,8.20591 -70.05676,-8.81724 -49.69416,-24.26716 37.75438,12.36839 79.305,21.18657 113.10364,-5.938014 12.36286,-12.670925 82.46706,-8.856029 52.73446,15.318864 z"
         style="fill:#000000;fill-opacity:1;stroke:none;stroke-width:5.43276119;stroke-linecap:round;stroke-linejoin:round;stroke-miterlimit:4;stroke-dasharray:none;stroke-dashoffset:0;stroke-opacity:1;paint-order:markers fill stroke" />
      <path
         inkscape:connector-curvature="0"
         id="path1399"
         d="m 291.16456,144.17291 c -41.31133,17.38182 -91.8149,31.04562 -135.18057,18.91137 -31.12276,-27.19158 4.52801,-28.41985 22.01503,-10.49645 36.6637,10.02841 74.65305,-2.52419 109.7414,-13.17129 5.71996,-1.76756 10.68575,2.30288 3.42414,4.75637 z"
         style="fill:#000000;fill-opacity:1;stroke:none;stroke-width:5.43276119;stroke-linecap:round;stroke-linejoin:round;stroke-miterlimit:4;stroke-dasharray:none;stroke-dashoffset:0;stroke-opacity:1;paint-order:markers fill stroke" />
      <path
         inkscape:connector-curvature="0"
         id="path1401"
         d="m 248.48154,183.83667 c -20.355,-3.47837 -77.07097,18.52361 -71.4006,-5.67242 20.52785,0.4962 73.49741,-10.61845 75.88882,2.33644 z"
         style="fill:#000000;fill-opacity:1;stroke:none;stroke-width:5.43276119;stroke-linecap:round;stroke-linejoin:round;stroke-miterlimit:4;stroke-dasharray:none;stroke-dashoffset:0;stroke-opacity:1;paint-order:markers fill stroke" />
      <path
         inkscape:connector-curvature="0"
         id="path1403"
         d="m 347.51356,164.16236 c 40.90632,22.97417 90.83532,21.73295 134.95644,9.71981 3.4214,1.58468 41.50061,-14.28607 68.87704,-8.49761 34.95525,-1.59407 74.16353,-11.42806 106.80053,-2.71457 -30.92824,21.06878 -74.93279,4.39113 -111.10401,12.50263 -35.67482,1.40036 -65.87252,-0.96862 -98.08744,15.20596 -37.32675,6.90476 -79.43928,5.48155 -112.64863,-13.61551 -2.23168,-6.57472 7.12266,-9.8628 11.20607,-12.60071 z"
         style="fill:#000000;fill-opacity:1;stroke:none;stroke-width:5.43276119;stroke-linecap:round;stroke-linejoin:round;stroke-miterlimit:4;stroke-dasharray:none;stroke-dashoffset:0;stroke-opacity:1;paint-order:markers fill stroke" />
      <path
         inkscape:connector-curvature="0"
         id="path1405"
         d="m 229.99944,103.29524 c -19.62385,18.54864 -52.76077,-30.852374 -14.06168,-15.456883 7.82021,1.519168 36.84606,5.632215 14.06168,15.456883 z"
         style="fill:#000000;fill-opacity:1;stroke:none;stroke-width:5.43276119;stroke-linecap:round;stroke-linejoin:round;stroke-miterlimit:4;stroke-dasharray:none;stroke-dashoffset:0;stroke-opacity:1;paint-order:markers fill stroke" />
    </g>
  </g>
</svg>
